<?xml version="1.0" encoding="UTF-8"?>
<svg version="1.1" xmlns="http://www.w3.org/2000/svg" width="800" height="800">
<path d="M0 0 C3.8148189 0.01139359 7.62935868 0.00460717 11.44416809 -0.00687408 C54.22878111 -0.11627674 54.22878111 -0.11627674 74.58007812 4.26074219 C76.27164951 4.57678517 77.96408124 4.88835689 79.65820312 5.19042969 C88.65994687 6.82742301 97.4662062 8.5970507 106.22851562 11.25292969 C111.18662945 12.74383105 116.1957017 14.02473023 121.20507812 15.33105469 C124.37827252 16.20515222 127.4689961 17.18809177 130.58007812 18.26074219 C131.19657227 18.47182617 131.81306641 18.68291016 132.44824219 18.90039062 C141.630039 22.05593786 150.66410482 25.40772606 159.58007812 29.26074219 C160.73378906 29.74542969 161.8875 30.23011719 163.07617188 30.72949219 C169.361557 33.38166761 175.53645295 36.13556541 181.59179688 39.28027344 C183.70225525 40.37700044 183.70225525 40.37700044 186.58007812 41.26074219 C186.58007812 41.92074219 186.58007812 42.58074219 186.58007812 43.26074219 C187.27875 43.35355469 187.97742188 43.44636719 188.69726562 43.54199219 C192.15858406 44.40497673 194.66559119 45.90200833 197.70507812 47.76074219 C201.9769022 50.3668111 201.9769022 50.3668111 206.58007812 52.26074219 C206.58007812 52.92074219 206.58007812 53.58074219 206.58007812 54.26074219 C207.30195312 54.34324219 208.02382813 54.42574219 208.76757812 54.51074219 C212.1454495 55.41150789 213.9288604 57.02813778 216.58007812 59.26074219 C217.57007813 59.59074219 218.56007813 59.92074219 219.58007812 60.26074219 C219.58007812 60.92074219 219.58007812 61.58074219 219.58007812 62.26074219 C220.670625 62.66873047 220.670625 62.66873047 221.78320312 63.08496094 C230.92934303 66.9299164 238.79824899 73.59032265 246.56542969 79.64086914 C249.67794114 82.06295974 252.75896863 84.41808255 256.09179688 86.53027344 C256.91292969 87.10132812 257.7340625 87.67238281 258.58007812 88.26074219 C258.58007812 88.92074219 258.58007812 89.58074219 258.58007812 90.26074219 C259.47726562 90.69386719 259.47726562 90.69386719 260.39257812 91.13574219 C262.58007812 92.26074219 262.58007812 92.26074219 265.58007812 94.26074219 C265.58007812 94.92074219 265.58007812 95.58074219 265.58007812 96.26074219 C266.10988281 96.47214844 266.6396875 96.68355469 267.18554688 96.90136719 C270.52256914 98.79579419 273.13113525 101.38223703 275.89257812 104.01074219 C277.05696584 105.10553208 278.22232038 106.19929466 279.38867188 107.29199219 C279.94280762 107.81148438 280.49694336 108.33097656 281.06787109 108.86621094 C282.81455202 110.47696997 284.61800878 112.00426163 286.45507812 113.51074219 C289.43807579 116.03036158 291.91529982 118.83044027 294.43945312 121.80371094 C296.65415349 124.34576664 298.94132635 126.8029334 301.25024414 129.2590332 C307.31499688 135.71287504 313.10330285 142.29388931 318.58007812 149.26074219 C319.36769531 150.25332031 320.1553125 151.24589844 320.96679688 152.26855469 C327.16240403 160.15120562 332.85972093 168.34013636 338.46240234 176.65185547 C339.38846175 177.98491171 340.38436803 179.26913146 341.39648438 180.53808594 C342.58007812 182.26074219 342.58007812 182.26074219 342.58007812 185.26074219 C343.24007812 185.26074219 343.90007813 185.26074219 344.58007812 185.26074219 C345.39845255 186.67402348 346.20954032 188.09152564 347.01757812 189.51074219 C347.47003906 190.29964844 347.9225 191.08855469 348.38867188 191.90136719 C349.47319415 194.04907686 350.11156529 195.9127928 350.58007812 198.26074219 C351.24007812 198.26074219 351.90007813 198.26074219 352.58007812 198.26074219 C353.0621875 199.2365625 353.54429687 200.21238281 354.04101562 201.21777344 C354.6789297 202.50298268 355.31695644 203.78813601 355.95507812 205.07324219 C356.43074219 206.03713867 356.43074219 206.03713867 356.91601562 207.02050781 C358.34466424 209.8926868 359.79793286 212.58752429 361.58007812 215.26074219 C361.58007812 216.25074219 361.58007812 217.24074219 361.58007812 218.26074219 C362.24007812 218.26074219 362.90007813 218.26074219 363.58007812 218.26074219 C363.91007813 220.24074219 364.24007812 222.22074219 364.58007812 224.26074219 C365.24007812 224.26074219 365.90007813 224.26074219 366.58007812 224.26074219 C366.85980469 224.94136719 367.13953125 225.62199219 367.42773438 226.32324219 C369.34950475 230.9700953 371.27775834 235.60752688 373.33007812 240.19824219 C376.46635391 247.21881843 379.36066283 254.15919352 381.66992188 261.50683594 C382.85699101 265.09861164 384.32309434 268.54582905 385.84570312 272.00683594 C386.66963257 274.53559811 386.71059358 276.61780422 386.58007812 279.26074219 C387.24007812 279.26074219 387.90007813 279.26074219 388.58007812 279.26074219 C388.71583252 279.84976318 388.85158691 280.43878418 388.99145508 281.0456543 C389.62070489 283.76423716 390.25660296 286.4812251 390.89257812 289.19824219 C391.10591797 290.12443359 391.31925781 291.050625 391.5390625 292.00488281 C392.76125869 297.20377707 394.19584211 302.22452375 395.93969727 307.27075195 C396.78757259 309.9055334 397.25103254 312.52372454 397.64257812 315.26074219 C398.14638039 318.71538626 398.75537885 322.09933842 399.54101562 325.49902344 C400.66218569 330.45081473 401.43325246 335.42291383 402.14257812 340.44824219 C402.26826172 341.29193359 402.39394531 342.135625 402.5234375 343.00488281 C404.31972575 355.57890059 404.74131147 368.15550687 404.74804688 380.84277344 C404.75127731 382.3098707 404.75464255 383.77696767 404.75813293 385.24406433 C404.76407135 388.30391177 404.76597861 391.36373121 404.76538086 394.42358398 C404.76530007 397.50372246 404.77217558 400.5837107 404.78588867 403.66381836 C404.98339689 448.77309035 404.98339689 448.77309035 400.58007812 469.26074219 C400.32605589 470.58785913 400.07707069 471.91595365 399.83398438 473.24511719 C395.60034472 496.30290603 395.60034472 496.30290603 392.58007812 505.26074219 C391.91886459 507.69411507 391.27382255 510.1319234 390.64257812 512.57324219 C389.15779834 518.21869119 387.53759457 523.7614867 385.58007812 529.26074219 C385.21011719 530.32808594 384.84015625 531.39542969 384.45898438 532.49511719 C380.30957549 544.33579799 375.39928587 555.77066883 370.25854492 567.20703125 C369.92636963 567.94791992 369.59419434 568.68880859 369.25195312 569.45214844 C368.95385742 570.1141626 368.65576172 570.77617676 368.34863281 571.45825195 C367.67953489 573.02748637 367.11953977 574.64235725 366.58007812 576.26074219 C365.92007813 576.26074219 365.26007812 576.26074219 364.58007812 576.26074219 C364.25007812 578.24074219 363.92007813 580.22074219 363.58007812 582.26074219 C362.92007813 582.26074219 362.26007812 582.26074219 361.58007812 582.26074219 C361.47050781 582.9876123 361.3609375 583.71448242 361.24804688 584.46337891 C360.53736121 587.43963488 359.49927046 589.42560206 357.89257812 592.01855469 C357.35890625 592.89125 356.82523438 593.76394531 356.27539062 594.66308594 C355.7159375 595.5615625 355.15648437 596.46003906 354.58007812 597.38574219 C353.47335158 599.17843519 352.36907154 600.97264152 351.26757812 602.76855469 C350.77644531 603.55891113 350.2853125 604.34926758 349.77929688 605.16357422 C348.44577776 607.33629141 348.44577776 607.33629141 347.58007812 610.26074219 C346.92007813 610.26074219 346.26007812 610.26074219 345.58007812 610.26074219 C345.25007812 611.91074219 344.92007813 613.56074219 344.58007812 615.26074219 C343.92007813 615.26074219 343.26007812 615.26074219 342.58007812 615.26074219 C342.34546875 615.93878906 342.11085938 616.61683594 341.86914062 617.31542969 C340.27973015 620.94699181 338.17662863 624.12148273 335.95507812 627.38574219 C335.51357422 628.03937744 335.07207031 628.6930127 334.6171875 629.36645508 C333.27962914 631.33694798 331.93238542 633.30034705 330.58007812 635.26074219 C330.17821289 635.8442041 329.77634766 636.42766602 329.36230469 637.02880859 C324.66728145 643.80009317 324.66728145 643.80009317 322.58007812 646.26074219 C321.92007813 646.26074219 321.26007812 646.26074219 320.58007812 646.26074219 C320.35320313 646.77636719 320.12632812 647.29199219 319.89257812 647.82324219 C318.09790195 651.15621223 316.08042797 654.4077789 313.58007812 657.26074219 C312.92007813 657.26074219 312.26007812 657.26074219 311.58007812 657.26074219 C311.27070312 657.87949219 310.96132813 658.49824219 310.64257812 659.13574219 C309.95507812 660.51074219 309.26757812 661.88574219 308.58007812 663.26074219 C307.92007813 663.26074219 307.26007812 663.26074219 306.58007812 663.26074219 C306.35320313 663.79699219 306.12632812 664.33324219 305.89257812 664.88574219 C304.12437723 668.0853438 302.0433761 670.55111442 299.58007812 673.26074219 C298.92007813 673.26074219 298.26007812 673.26074219 297.58007812 673.26074219 C297.32484375 673.84049805 297.06960938 674.42025391 296.80664062 675.01757812 C295.45423036 677.49089531 293.94275289 679.15676328 291.95507812 681.15136719 C291.24867188 681.86035156 290.54226563 682.56933594 289.81445312 683.29980469 C289.07710937 684.02941406 288.33976563 684.75902344 287.58007812 685.51074219 C286.84273437 686.25582031 286.10539063 687.00089844 285.34570312 687.76855469 C284.28609375 688.82429687 284.28609375 688.82429687 283.20507812 689.90136719 C282.55796875 690.5462207 281.91085937 691.19107422 281.24414062 691.85546875 C279.58007812 693.26074219 279.58007812 693.26074219 277.58007812 693.26074219 C277.58007812 693.92074219 277.58007812 694.58074219 277.58007812 695.26074219 C275.90039062 696.98730469 275.90039062 696.98730469 273.70507812 698.88574219 C272.62613281 699.83320312 272.62613281 699.83320312 271.52539062 700.79980469 C269.58007812 702.26074219 269.58007812 702.26074219 267.58007812 702.26074219 C267.58007812 702.92074219 267.58007812 703.58074219 267.58007812 704.26074219 C264.11853966 707.26074219 264.11853966 707.26074219 261.58007812 707.26074219 C261.58007812 707.92074219 261.58007812 708.58074219 261.58007812 709.26074219 C260.24169922 710.52246094 260.24169922 710.52246094 258.35351562 711.94824219 C257.65750244 712.47780518 256.96148926 713.00736816 256.24438477 713.55297852 C255.48891357 714.11654053 254.73344238 714.68010254 253.95507812 715.26074219 C253.19122803 715.83655029 252.42737793 716.4123584 251.64038086 717.00561523 C249.29411555 718.76720068 246.93927134 720.5165163 244.58007812 722.26074219 C243.51732666 723.04698975 243.51732666 723.04698975 242.43310547 723.84912109 C240.50896946 725.26571124 238.57822739 726.67243659 236.64257812 728.07324219 C236.05847168 728.49927734 235.47436523 728.9253125 234.87255859 729.36425781 C230.81772306 732.26074219 230.81772306 732.26074219 228.58007812 732.26074219 C228.58007812 732.92074219 228.58007812 733.58074219 228.58007812 734.26074219 C226.79858398 735.53833008 226.79858398 735.53833008 224.29492188 736.98339844 C223.3794458 737.51739258 222.46396973 738.05138672 221.52075195 738.6015625 C220.52970459 739.1697168 219.53865723 739.73787109 218.51757812 740.32324219 C216.47811853 741.50615156 214.43905665 742.68974691 212.40039062 743.87402344 C211.39911133 744.45361816 210.39783203 745.03321289 209.36621094 745.63037109 C207.03923214 746.99205742 204.73615655 748.37939601 202.44726562 749.80371094 C192.86151964 755.76854737 182.87358342 760.63439403 172.58007812 765.26074219 C171.91621094 765.5652832 171.25234375 765.86982422 170.56835938 766.18359375 C167.71575567 767.46188315 165.74493676 768.26074219 162.58007812 768.26074219 C162.58007812 768.92074219 162.58007812 769.58074219 162.58007812 770.26074219 C160.53841146 770.98990885 158.49674479 771.71907552 156.45507812 772.44824219 C155.82633789 772.67310303 155.19759766 772.89796387 154.54980469 773.12963867 C151.33012659 774.28072568 148.10897955 775.42707086 144.88476562 776.56542969 C139.84694714 778.34804238 134.85279573 780.12121292 129.95507812 782.26074219 C122.60970277 785.25688213 114.76515347 786.81983774 107.06933594 788.65820312 C104.80420727 789.20649045 102.54677677 789.77684807 100.29101562 790.36230469 C92.40179894 792.40659076 84.51278509 794.11488936 76.49414062 795.54980469 C74.45817348 795.9196111 72.42249262 796.29455446 70.39926147 796.72866821 C50.27969168 801.02981861 29.35182429 800.58728897 8.86914062 800.52148438 C5.29644166 800.5100908 1.72404077 800.5168805 -1.84864807 800.52835846 C-22.449004 800.58455906 -43.20120007 800.6170777 -63.41992188 796.26074219 C-64.74702471 796.00664629 -66.07511966 795.75765998 -67.40429688 795.51464844 C-90.24233794 791.32135667 -90.24233794 791.32135667 -96.33398438 789.28808594 C-99.90039012 788.10078884 -103.51530443 787.24565217 -107.16992188 786.38574219 C-112.65456633 785.05643428 -117.80997787 783.48984856 -123.00585938 781.25683594 C-125.73123783 780.13228658 -128.48852615 779.22607492 -131.29492188 778.32324219 C-137.48796429 776.29312497 -143.43548546 773.83299994 -149.41992188 771.26074219 C-150.51046875 770.80828125 -151.60101563 770.35582031 -152.72460938 769.88964844 C-161.07482539 766.39619072 -169.15676722 762.50444347 -177.20849609 758.37670898 C-178.83226284 757.55729656 -180.4655826 756.75674399 -182.10400391 755.96704102 C-190.06533509 752.09813647 -197.55662915 747.6419678 -205.04492188 742.94824219 C-207.34864285 741.51309056 -209.65391631 740.08044937 -211.95898438 738.64746094 C-212.9613916 738.02057373 -213.96379883 737.39368652 -214.99658203 736.74780273 C-217.31372028 735.27774593 -217.31372028 735.27774593 -219.41992188 734.26074219 C-219.41992188 733.60074219 -219.41992188 732.94074219 -219.41992188 732.26074219 C-220.12117187 732.01324219 -220.82242188 731.76574219 -221.54492188 731.51074219 C-224.81506735 730.08893981 -227.56104387 728.38827931 -230.41992188 726.26074219 C-230.41992188 725.60074219 -230.41992188 724.94074219 -230.41992188 724.26074219 C-231.10054687 724.03386719 -231.78117188 723.80699219 -232.48242188 723.57324219 C-236.11879277 721.94848072 -239.44821451 719.93270962 -242.41992188 717.26074219 C-242.41992188 716.60074219 -242.41992188 715.94074219 -242.41992188 715.26074219 C-242.95617187 715.01324219 -243.49242187 714.76574219 -244.04492188 714.51074219 C-247.00232007 712.95421682 -249.71716238 711.22638546 -252.41992188 709.26074219 C-252.41992188 708.60074219 -252.41992188 707.94074219 -252.41992188 707.26074219 C-252.97421875 707.02484375 -253.52851563 706.78894531 -254.09960938 706.54589844 C-256.98439429 704.94809669 -259.1316422 702.9422321 -261.54492188 700.69824219 C-264.73499697 697.62355032 -264.73499697 697.62355032 -268.41992188 695.26074219 C-268.41992188 694.60074219 -268.41992188 693.94074219 -268.41992188 693.26074219 C-269.40992188 692.93074219 -270.39992188 692.60074219 -271.41992188 692.26074219 C-271.41992188 691.60074219 -271.41992188 690.94074219 -271.41992188 690.26074219 C-271.96003906 690.04675781 -272.50015625 689.83277344 -273.05664062 689.61230469 C-276.27038993 687.7743588 -278.66891486 685.26391279 -281.23242188 682.63574219 C-281.762146 682.09957275 -282.29187012 681.56340332 -282.83764648 681.01098633 C-286.36533942 677.41430261 -289.76467639 673.73068914 -293.01757812 669.88183594 C-294.41267568 668.2141387 -294.41267568 668.2141387 -296.10351562 666.67089844 C-297.41992188 665.26074219 -297.41992188 665.26074219 -297.41992188 663.26074219 C-298.07992187 663.26074219 -298.73992187 663.26074219 -299.41992188 663.26074219 C-300.76393118 661.26790081 -302.0953348 659.26654548 -303.41992188 657.26074219 C-305.06638873 655.57411761 -306.73175255 653.90562512 -308.41992188 652.26074219 C-311.41992188 648.64005253 -311.41992188 648.64005253 -311.41992188 646.26074219 C-312.07992187 646.26074219 -312.73992187 646.26074219 -313.41992188 646.26074219 C-315.08398437 644.27636719 -315.08398437 644.27636719 -317.04492188 641.51074219 C-317.75390625 640.51171875 -318.46289062 639.51269531 -319.19335938 638.48339844 C-322.66912234 633.45268888 -326.05763848 628.36773986 -329.41992188 623.26074219 C-330.15726562 622.1946875 -330.89460938 621.12863281 -331.65429688 620.03027344 C-333.41992188 617.26074219 -333.41992188 617.26074219 -333.41992188 615.26074219 C-334.07992187 615.26074219 -334.73992187 615.26074219 -335.41992188 615.26074219 C-335.76023437 614.6175 -336.10054688 613.97425781 -336.45117188 613.31152344 C-339.9325417 606.82099086 -343.66435985 600.53338012 -347.58789062 594.30371094 C-352.41992188 586.27779976 -352.41992188 586.27779976 -352.41992188 582.26074219 C-353.07992187 582.26074219 -353.73992187 582.26074219 -354.41992188 582.26074219 C-354.91492188 579.29074219 -354.91492188 579.29074219 -355.41992188 576.26074219 C-356.07992187 576.26074219 -356.73992187 576.26074219 -357.41992188 576.26074219 C-357.69964844 575.58011719 -357.979375 574.89949219 -358.26757812 574.19824219 C-360.1893485 569.55138907 -362.11760209 564.9139575 -364.16992188 560.32324219 C-367.30619766 553.30266594 -370.20050658 546.36229085 -372.50976562 539.01464844 C-373.69683476 535.42287274 -375.16293809 531.97565533 -376.68554688 528.51464844 C-377.50947632 525.98588626 -377.55043733 523.90368016 -377.41992188 521.26074219 C-378.07992188 521.26074219 -378.73992187 521.26074219 -379.41992188 521.26074219 C-379.54109375 520.60847656 -379.66226562 519.95621094 -379.78710938 519.28417969 C-379.9546875 518.41019531 -380.12226563 517.53621094 -380.29492188 516.63574219 C-380.45734375 515.77722656 -380.61976563 514.91871094 -380.78710938 514.03417969 C-381.47406941 511.02342891 -382.41912084 508.18159855 -383.41992188 505.26074219 C-385.80581179 497.56251927 -387.79134365 489.9765429 -388.98632812 482.00292969 C-389.38378058 479.48931147 -389.89576015 477.04835516 -390.48242188 474.57324219 C-391.37161808 470.76637095 -391.8374453 467.00082828 -392.17382812 463.10839844 C-392.33019287 461.16919125 -392.33019287 461.16919125 -393.41992188 459.26074219 C-396.10990754 441.14268345 -395.73666646 422.54010412 -395.68066406 404.26806641 C-395.66927047 400.51377757 -395.67605768 396.75977236 -395.68753815 393.00549316 C-395.79768505 350.60514215 -395.79768505 350.60514215 -391.41992188 330.26074219 C-391.10387889 328.5691708 -390.79230718 326.87673907 -390.49023438 325.18261719 C-388.85777419 316.20665833 -387.08481654 307.43843054 -384.43554688 298.70214844 C-383.23155947 294.62248343 -382.18973292 290.51461111 -381.16992188 286.38574219 C-380.99460937 285.67635498 -380.81929688 284.96696777 -380.63867188 284.23608398 C-380.23050399 282.5781077 -379.82491643 280.91949648 -379.41992188 279.26074219 C-378.75992187 279.26074219 -378.09992188 279.26074219 -377.41992188 279.26074219 C-377.33742188 277.98199219 -377.25492187 276.70324219 -377.16992188 275.38574219 C-376.66486858 270.96993841 -375.46173167 267.37351477 -373.71289062 263.30761719 C-372.70544174 260.93356845 -371.7591536 258.56169426 -370.84570312 256.15136719 C-367.49838311 247.32209337 -363.89995157 238.71028535 -359.80273438 230.20214844 C-358.36699271 227.29768237 -358.36699271 227.29768237 -357.41992188 224.26074219 C-356.75992188 224.26074219 -356.09992188 224.26074219 -355.41992188 224.26074219 C-354.92492187 221.29074219 -354.92492187 221.29074219 -354.41992188 218.26074219 C-353.75992188 218.26074219 -353.09992188 218.26074219 -352.41992188 218.26074219 C-352.28070313 217.21273437 -352.28070313 217.21273437 -352.13867188 216.14355469 C-351.27568733 212.68223625 -349.77865574 210.17522912 -347.91992188 207.13574219 C-345.31385296 202.86391811 -345.31385296 202.86391811 -343.41992188 198.26074219 C-342.75992188 198.26074219 -342.09992188 198.26074219 -341.41992188 198.26074219 C-341.30777344 197.69871094 -341.195625 197.13667969 -341.08007812 196.55761719 C-340.32934849 193.94561111 -339.20824812 191.86602897 -337.85742188 189.51074219 C-337.17486328 188.31191406 -337.17486328 188.31191406 -336.47851562 187.08886719 C-336.12917969 186.48558594 -335.77984375 185.88230469 -335.41992188 185.26074219 C-334.75992188 185.26074219 -334.09992188 185.26074219 -333.41992188 185.26074219 C-333.17242187 184.58011719 -332.92492187 183.89949219 -332.66992188 183.19824219 C-329.8789652 176.639494 -325.9688836 171.08265799 -321.66992188 165.44824219 C-321.1369751 164.74465576 -320.60402832 164.04106934 -320.05493164 163.31616211 C-309.95236781 150.02267212 -299.30958985 137.22890827 -287.92773438 125.01464844 C-286.16644607 123.08052343 -284.49198763 121.15065305 -282.84179688 119.12792969 C-280.8374176 116.75500326 -278.92034185 114.79947333 -276.54492188 112.82324219 C-273.82024737 110.50393357 -271.23798221 108.12793116 -268.73242188 105.57324219 C-266.10756328 102.91242662 -263.47091535 100.44002324 -260.41992188 98.26074219 C-259.75992188 98.26074219 -259.09992188 98.26074219 -258.41992188 98.26074219 C-258.41992188 97.60074219 -258.41992188 96.94074219 -258.41992188 96.26074219 C-257.75992188 96.26074219 -257.09992188 96.26074219 -256.41992188 96.26074219 C-256.41992188 95.60074219 -256.41992188 94.94074219 -256.41992188 94.26074219 C-254.52096672 92.58792688 -252.61592065 91.04372296 -250.60742188 89.51074219 C-249.98649658 89.03121094 -249.36557129 88.55167969 -248.72583008 88.05761719 C-246.63127893 86.44867355 -244.52701291 84.85322396 -242.41992188 83.26074219 C-241.67613281 82.69677734 -240.93234375 82.1328125 -240.16601562 81.55175781 C-204.04285721 54.26074219 -204.04285721 54.26074219 -197.41992188 54.26074219 C-197.41992188 53.60074219 -197.41992188 52.94074219 -197.41992188 52.26074219 C-196.77925781 51.94621094 -196.13859375 51.63167969 -195.47851562 51.30761719 C-191.40803437 49.29360858 -187.38035451 47.28198297 -183.48242188 44.94824219 C-180.41992188 43.26074219 -180.41992188 43.26074219 -177.41992188 43.26074219 C-177.41992188 42.60074219 -177.41992188 41.94074219 -177.41992188 41.26074219 C-176.64648438 40.94621094 -175.87304688 40.63167969 -175.07617188 40.30761719 C-169.77321971 38.1286814 -164.55916178 35.89777142 -159.45507812 33.28808594 C-151.76451331 29.40590063 -143.92546874 26.2684069 -135.77929688 23.47167969 C-132.39206538 22.29809192 -132.39206538 22.29809192 -129.09570312 20.77246094 C-124.75376873 18.98677697 -120.40489538 17.83064525 -115.85742188 16.69824219 C-110.63772057 15.38005335 -105.5237778 13.98220084 -100.41992188 12.26074219 C-90.13244371 9.27094781 -79.77878152 6.78764652 -69.22851562 4.93652344 C-66.42011945 4.43821314 -63.65261592 3.88333784 -60.86547852 3.2878418 C-40.97669286 -0.68289849 -20.19946048 -0.06079338 0 0 Z " fill="#000000" transform="translate(395.419921875,-0.2607421875)"/>
<path d="M0 0 C0.96502441 0.00346436 1.93004883 0.00692871 2.92431641 0.01049805 C10.41459245 0.1241774 17.09043482 0.99775336 24.25 3.3125 C24.93191406 3.51746094 25.61382813 3.72242188 26.31640625 3.93359375 C37.64640369 7.74179748 47.9348257 13.93400909 57.25 21.3125 C58.22324219 22.08207031 59.19648437 22.85164063 60.19921875 23.64453125 C66.5133908 28.72790341 72.20118782 34.03673024 77.5625 40.125 C78.25988281 40.91519531 78.95726562 41.70539063 79.67578125 42.51953125 C80.19527344 43.11121094 80.71476562 43.70289063 81.25 44.3125 C80.17672434 47.42499941 79.40113627 48.23232661 76.4296875 49.80859375 C75.38039063 50.30488281 74.33109375 50.80117188 73.25 51.3125 C62.69842033 59.39983928 50.64178544 72.08453677 47.25 85.3125 C46.59 85.3125 45.93 85.3125 45.25 85.3125 C45.25 86.6325 45.25 87.9525 45.25 89.3125 C44.59 89.3125 43.93 89.3125 43.25 89.3125 C43.12882812 90.07175781 43.00765625 90.83101563 42.8828125 91.61328125 C42.71523438 92.60714844 42.54765625 93.60101563 42.375 94.625 C42.13136719 96.10419922 42.13136719 96.10419922 41.8828125 97.61328125 C41.25 100.3125 41.25 100.3125 39.25 103.3125 C38.77058732 106.28959353 38.40246883 109.19066553 38.125 112.1875 C38.04080811 113.06575439 37.95661621 113.94400879 37.86987305 114.84887695 C37.29706551 121.40163272 37.06841098 127.92344284 37.0625 134.5 C37.0612915 135.77109619 37.0612915 135.77109619 37.06005859 137.06787109 C37.13012231 144.96015939 37.67081962 152.3025336 40.25 159.8125 C41.95130208 165.05818141 42.87758464 169.81937342 43.25 175.3125 C43.91 175.3125 44.57 175.3125 45.25 175.3125 C45.77207031 176.31667969 46.29414062 177.32085937 46.83203125 178.35546875 C55.65381971 194.91209711 67.83821016 211.144006 85.25 219.3125 C85.25 219.9725 85.25 220.6325 85.25 221.3125 C86.1575 221.580625 87.065 221.84875 88 222.125 C93.18696275 224.02023639 93.18696275 224.02023639 95.25 226.3125 C95.88109751 229.54183079 95.81594452 232.71954935 95.75 236 C95.73404785 237.40934814 95.73404785 237.40934814 95.71777344 238.84716797 C95.4870721 247.44590334 93.88928841 255.15962964 91.25 263.3125 C90.91484375 264.35148437 90.5796875 265.39046875 90.234375 266.4609375 C88.56122395 271.30776396 86.57543659 275.86508914 84.1875 280.3984375 C83.18984288 282.43532078 82.43470258 284.48457594 81.6875 286.625 C80.25 290.3125 80.25 290.3125 78.8515625 291.70703125 C76.76248164 293.80120743 75.60360756 296.0918827 74.1875 298.6875 C64.20718924 316.05365918 50.23850955 330.85451096 34.125 342.625 C33.53871826 343.05828613 32.95243652 343.49157227 32.34838867 343.93798828 C28.77647674 346.49187257 25.48251179 348.14823764 21.25 349.3125 C21.25 349.9725 21.25 350.6325 21.25 351.3125 C11.58970631 356.63551897 0.37764766 361.03167608 -10.75 361.3125 C-12.50183594 361.4053125 -12.50183594 361.4053125 -14.2890625 361.5 C-28.73828188 362.0622125 -41.24699637 358.01969633 -54.57080078 352.89599609 C-62.46380203 349.91448322 -70.49916321 348.01337673 -78.75 346.3125 C-78.75 345.6525 -78.75 344.9925 -78.75 344.3125 C-90.63 344.3125 -102.51 344.3125 -114.75 344.3125 C-114.75 344.9725 -114.75 345.6325 -114.75 346.3125 C-128.75 350.3125 -128.75 350.3125 -132.3984375 351.296875 C-135.40652288 352.20841602 -138.00695504 353.2913968 -140.8125 354.6875 C-155.87856509 361.68245879 -173.30998008 364.60050398 -189.75 361.3125 C-190.08 360.9825 -190.41 360.6525 -190.75 360.3125 C-191.94882812 360.209375 -193.14765625 360.10625 -194.3828125 360 C-198.78471414 359.49020293 -202.00660518 357.79952987 -205.625 355.3125 C-206.52617554 354.71236084 -206.52617554 354.71236084 -207.44555664 354.10009766 C-212.99213678 350.31958175 -217.9622968 346.0137258 -222.75 341.3125 C-223.28407471 340.80251465 -223.81814941 340.2925293 -224.3684082 339.76708984 C-228.72232116 335.54093325 -232.45601155 331.06063509 -236.0625 326.1875 C-236.84850586 325.15302734 -236.84850586 325.15302734 -237.65039062 324.09765625 C-240.24102996 320.62799076 -242.41056609 317.48503958 -243.75 313.3125 C-244.41 313.3125 -245.07 313.3125 -245.75 313.3125 C-246.28109375 312.29929687 -246.8121875 311.28609375 -247.359375 310.2421875 C-248.07274694 308.89053541 -248.78629817 307.53897793 -249.5 306.1875 C-249.84804687 305.52234375 -250.19609375 304.8571875 -250.5546875 304.171875 C-252.73826239 300.04734465 -255.11937202 296.17484151 -257.75 292.3125 C-260.75 286.84821429 -260.75 286.84821429 -260.75 283.3125 C-261.41 283.3125 -262.07 283.3125 -262.75 283.3125 C-265.13746485 278.89569004 -266.8297629 274.39813242 -268.5 269.66796875 C-270.33679191 264.73733046 -272.3915689 259.89912 -274.46386719 255.06323242 C-276.75 249.63647168 -276.75 249.63647168 -276.75 246.3125 C-277.41 246.3125 -278.07 246.3125 -278.75 246.3125 C-280.75 240.3125 -282.75 234.3125 -284.75 228.3125 C-285.0814502 227.35891602 -285.41290039 226.40533203 -285.75439453 225.42285156 C-286.75228047 222.30537564 -287.50210863 219.22338266 -288.1875 216.0234375 C-288.44273437 214.83363281 -288.69796875 213.64382813 -288.9609375 212.41796875 C-289.22132813 211.18691406 -289.48171875 209.95585937 -289.75 208.6875 C-290.14058594 206.87572266 -290.14058594 206.87572266 -290.5390625 205.02734375 C-292.7119395 194.83238047 -294.67924465 184.67427152 -295.50390625 174.2734375 C-295.64910019 172.23733487 -295.64910019 172.23733487 -296.75 170.3125 C-297.06327024 167.49306784 -297.26029964 164.67271918 -297.46875 161.84375 C-297.60132612 159.32175996 -297.60132612 159.32175996 -298.75 157.3125 C-298.89815736 154.8215809 -298.98637744 152.36035374 -299.0234375 149.8671875 C-299.03587494 149.11311615 -299.04831238 148.3590448 -299.06112671 147.5821228 C-299.33898061 126.63483246 -298.88935653 106.59900987 -289.75 87.3125 C-289.10010432 85.83511368 -288.4537937 84.35614048 -287.8125 82.875 C-281.30857676 68.28580748 -281.30857676 68.28580748 -276.75 62.3125 C-276.09 62.3125 -275.43 62.3125 -274.75 62.3125 C-274.48703125 61.57902344 -274.2240625 60.84554687 -273.953125 60.08984375 C-266.14153917 42.05725439 -242.21323862 23.75054608 -224.75 16.3125 C-224.110625 15.77625 -223.47125 15.24 -222.8125 14.6875 C-219.63006443 12.56587628 -216.53300003 12.62775 -212.75 12.3125 C-212.75 11.6525 -212.75 10.9925 -212.75 10.3125 C-207.82015675 8.27256486 -204.17039575 6.90597032 -198.75 7.3125 C-198.75 6.6525 -198.75 5.9925 -198.75 5.3125 C-194.46 4.9825 -190.17 4.6525 -185.75 4.3125 C-185.75 3.6525 -185.75 2.9925 -185.75 2.3125 C-170.55028743 0.37311759 -154.07808664 -0.9560379 -139.75 5.3125 C-139.75 5.9725 -139.75 6.6325 -139.75 7.3125 C-138.63625 7.415625 -137.5225 7.51875 -136.375 7.625 C-135.17875 7.851875 -133.9825 8.07875 -132.75 8.3125 C-131.76 9.7975 -131.76 9.7975 -130.75 11.3125 C-128.55341965 12.58086661 -126.40548716 13.71988403 -124.125 14.8125 C-123.49489014 15.12074707 -122.86478027 15.42899414 -122.21557617 15.74658203 C-116.82535091 18.35057567 -111.4227551 20.42158163 -105.75 22.3125 C-105.75 22.9725 -105.75 23.6325 -105.75 24.3125 C-78.9746476 25.32537437 -78.9746476 25.32537437 -53.75 17.77734375 C-49.83973536 15.86803485 -45.90652948 14.58059374 -41.75 13.3125 C-41.75 12.6525 -41.75 11.9925 -41.75 11.3125 C-39.77 10.9825 -37.79 10.6525 -35.75 10.3125 C-35.75 9.6525 -35.75 8.9925 -35.75 8.3125 C-35.01394531 8.13074219 -34.27789062 7.94898438 -33.51953125 7.76171875 C-28.38592815 6.43932429 -24.28893046 5.05974738 -19.75 2.3125 C-13.23493929 0.28625154 -6.77835963 -0.03966376 0 0 Z " fill="#FCFCFC" transform="translate(501.75,250.6875)"/>
<path d="M0 0 C-0.10441406 0.60585938 -0.20882812 1.21171875 -0.31640625 1.8359375 C-0.69965451 5.7900862 -0.7903641 8.83518456 1.49537659 12.20384216 C2.18856491 12.92991165 2.88175323 13.65598114 3.59594727 14.40405273 C4.41829865 15.27206512 5.24065002 16.14007751 6.08792114 17.03439331 C7.05695408 18.02455619 8.02775723 19.01298867 9 20 C9.53131908 20.54395039 10.06263817 21.08790077 10.61005783 21.6483345 C15.04848701 26.18640037 19.53514641 30.67541211 24.02734375 35.16015625 C25.46715123 36.60063857 26.90681033 38.04126921 28.34632874 39.48204041 C31.34262881 42.47980517 34.34070621 45.47577759 37.34008789 48.47045898 C41.18926362 52.31389671 45.03387656 56.16186265 48.87720394 60.0111475 C51.83926802 62.97681539 54.80369748 65.94010961 57.76886177 68.90267754 C59.18861903 70.32176716 60.60763229 71.74160153 62.02589226 73.16218758 C63.99784919 75.13667249 65.97296259 77.10794361 67.94897461 79.07836914 C68.82867668 79.96110756 68.82867668 79.96110756 69.72615051 80.86167908 C73.81721325 85.07834005 73.81721325 85.07834005 79.375 86.125 C82.22302085 86.02679238 84.31048728 85.74642864 87 85 C95.25938005 96.46638446 103.41131001 108.01123605 111.1875 119.8125 C120.93766538 135.10144117 120.93766538 135.10144117 135 146 C137.1550462 146.46703425 137.1550462 146.46703425 139.25 146.5625 C143.91198208 147.10639791 145.04396032 148.46917482 148 152 C148.763125 152.763125 149.52625 153.52625 150.3125 154.3125 C150.869375 154.869375 151.42625 155.42625 152 156 C150.51208319 160.97554749 147.61594772 163.85153327 144.0390625 167.4296875 C143.45208588 168.02427765 142.86510925 168.6188678 142.26034546 169.23147583 C141.02183587 170.4807581 139.77936388 171.72612309 138.53320312 172.96777344 C136.62429633 174.87570331 134.73774485 176.80400826 132.8515625 178.734375 C131.64453102 179.94661015 130.43623999 181.15759276 129.2265625 182.3671875 C128.66288971 182.94725555 128.09921692 183.52732361 127.51846313 184.12496948 C125.90087891 185.71435547 125.90087891 185.71435547 123 188 C118.10169903 187.40852052 115.83157379 184.10955526 112.75 180.53515625 C110.58705854 177.40178793 110.10070328 174.88200102 109.5234375 171.1875 C107.55447136 162.95898479 99.34876384 157.78924182 93 153 C92.13890625 152.30003906 91.2778125 151.60007812 90.390625 150.87890625 C88.04474315 149.03516578 85.61733554 147.63269102 83.01171875 146.19140625 C79.73670001 144.25183205 76.67534452 142.01750031 73.578125 139.80859375 C70.32184364 137.52426304 66.98000292 135.38529596 63.6171875 133.26171875 C63.08351563 132.84535156 62.54984375 132.42898438 62 132 C62 131.34 62 130.68 62 130 C61.154375 129.79375 60.30875 129.5875 59.4375 129.375 C55.15346611 127.66138645 52.32757433 125.13067644 49 122 C49.495 120.515 49.495 120.515 50 119 C50.54716814 115.51180311 50.77189804 113.0814406 48.6591835 110.1214962 C48.07670727 109.48580523 47.49423103 108.85011425 46.894104 108.19515991 C46.25614143 107.49572643 45.61817886 106.79629295 44.96088409 106.07566452 C42.08116807 103.02738421 39.16463831 100.02500557 36.19433594 97.06494141 C35.55439697 96.42325012 34.91445801 95.78155884 34.25512695 95.12042236 C32.16736153 93.02830287 30.07601628 90.93980646 27.984375 88.8515625 C26.52168424 87.38819727 25.05914189 85.92468369 23.59674072 84.46102905 C20.54560729 81.40842775 17.49268848 78.35762656 14.43847656 75.30810547 C10.52208975 71.39744078 6.61024368 67.48226947 2.69970322 63.56575966 C-0.31301537 60.54943241 -3.32810552 57.53548487 -6.34392548 54.52225876 C-7.78797574 53.07887561 -9.23128344 51.63474916 -10.67383575 50.18986893 C-12.68412129 48.17704915 -14.69757506 46.16745354 -16.71191406 44.15869141 C-17.30727966 43.56130157 -17.90264526 42.96391174 -18.51605225 42.34841919 C-22.76505758 37.73600956 -22.76505758 37.73600956 -28.4453125 35.83984375 C-29.32960938 35.87207031 -30.21390625 35.90429688 -31.125 35.9375 C-32.74923144 35.99164105 -34.37499432 36.02038538 -36 36 C-37.6877906 34.3122094 -37.21187677 32.24713215 -37.25 29.9375 C-37.22218232 24.61041493 -36.18597853 20.82736925 -34 16 C-33.34 16 -32.68 16 -32 16 C-31.7421875 15.41734375 -31.484375 14.8346875 -31.21875 14.234375 C-29.90165983 11.8197097 -28.44911616 10.18259823 -26.5 8.25 C-25.8915625 7.63640625 -25.283125 7.0228125 -24.65625 6.390625 C-23 5 -23 5 -21 5 C-20.67 4.01 -20.34 3.02 -20 2 C-14.11527876 -0.88886315 -6.23321546 -3.11660773 0 0 Z " fill="#080809" transform="translate(290,279)"/>
<path d="M0 0 C0 0.66 0 1.32 0 2 C1.02287109 2.34998047 1.02287109 2.34998047 2.06640625 2.70703125 C10.59212721 6.46470587 19.78251547 13.24830871 25 21 C25.95742798 23.83572388 25.95742798 23.83572388 26 27 C24.35247829 29.30845511 22.89899912 30.96081756 20.86865234 32.87841797 C20.31112274 33.43215088 19.75359314 33.98588379 19.1791687 34.55639648 C17.33038365 36.38499788 15.45840412 38.18787083 13.5859375 39.9921875 C12.29437717 41.26306064 11.00457502 42.53572284 9.71646118 43.81008911 C6.31678734 47.166004 2.89800056 50.50170829 -0.52648926 53.83227539 C-5.99050842 59.15104083 -11.42906292 64.4956638 -16.86011887 69.84805679 C-18.75425647 71.70800963 -20.65878357 73.55679426 -22.56484985 75.4045105 C-32.84146419 85.29791778 -32.84146419 85.29791778 -38.6875 98.125 C-38.92210937 99.05441406 -39.15671875 99.98382812 -39.3984375 100.94140625 C-40.06035823 104.30688631 -40.4350069 107.65395935 -40.8125 111.0625 C-41.71680821 117.8933901 -43.89935693 122.52264223 -48 128 C-48.69802734 128.96873047 -48.69802734 128.96873047 -49.41015625 129.95703125 C-55.71727567 138.02100845 -63.99253354 142.31557495 -74 144 C-80.60849475 144.62419066 -86.61971089 143.72606855 -93 142 C-93 141.34 -93 140.68 -93 140 C-93.70253906 140.09925781 -94.40507812 140.19851563 -95.12890625 140.30078125 C-99.09365297 139.88542683 -101.15805216 137.83208758 -103.9375 135.1875 C-104.72809814 134.44632935 -104.72809814 134.44632935 -105.53466797 133.69018555 C-113.35237657 126.05504329 -117.82184233 116.70147916 -118.3125 105.75 C-117.99199089 95.4224842 -115.14703676 87.46684579 -108 80 C-107.31679688 79.27683594 -106.63359375 78.55367188 -105.9296875 77.80859375 C-98.94621075 71.01284487 -91.58536233 68.4424448 -82.0625 67.0625 C-67.43331756 64.76333241 -59.48791436 57.42537883 -49.58984375 47.16796875 C-48.24832034 45.80573064 -46.90498999 44.44526988 -45.55995178 43.08650208 C-42.04915173 39.53228536 -38.55868679 35.95881581 -35.0736084 32.37939453 C-29.46961004 26.62904339 -23.83835549 20.90551449 -18.20047188 15.18840981 C-16.23681802 13.19032828 -14.28412734 11.18199055 -12.33250427 9.17216492 C-11.13856429 7.95456095 -9.94433105 6.73724445 -8.74975586 5.52026367 C-8.20899918 4.95772385 -7.66824249 4.39518402 -7.11109924 3.81559753 C-3.34068322 0 -3.34068322 0 0 0 Z " fill="#070708" transform="translate(370,427)"/>
<path d="M0 0 C0 0.66 0 1.32 0 2 C-0.84304688 2.4021875 -1.68609375 2.804375 -2.5546875 3.21875 C-6.23224901 5.12007432 -9.66045659 7.24245881 -13.125 9.5 C-13.73214844 9.89058594 -14.33929688 10.28117187 -14.96484375 10.68359375 C-16.65215811 11.7753854 -18.32655888 12.88706084 -20 14 C-21.14855469 14.70189453 -21.14855469 14.70189453 -22.3203125 15.41796875 C-24.68115076 17.64154897 -25.04004327 19.67685776 -25.75 22.8125 C-26.11351562 24.33810547 -26.11351562 24.33810547 -26.484375 25.89453125 C-27.52370392 31.97816351 -27.52370392 31.97816351 -25.50390625 37.6328125 C-24.86324219 38.45523438 -24.22257812 39.27765625 -23.5625 40.125 C-21.28279419 43.08170935 -19.60902981 45.27719809 -19 49 C-16.98030444 49.34015925 -14.95917203 49.67179169 -12.9375 50 C-11.24947266 50.2784375 -11.24947266 50.2784375 -9.52734375 50.5625 C-1.57748957 51.54852843 2.20531913 50.88286876 8.5625 46.25 C9.19607422 45.8065625 9.82964844 45.363125 10.48242188 44.90625 C11.73144272 44.03154951 12.97715245 43.15209879 14.21923828 42.26757812 C21.61941448 37 21.61941448 37 24 37 C23.96081955 49.32225157 20.36952745 58.16458455 11.98828125 67.21484375 C4.92871671 73.55319541 -3.03172259 77.08741213 -12.5 77.375 C-20.04739469 77.81519799 -26.85855396 79.5830355 -34 82 C-34.91652344 82.29003906 -35.83304687 82.58007812 -36.77734375 82.87890625 C-39.52068453 84.26262998 -39.65653126 85.30660793 -41 88 C-42.59375 89.84771729 -42.59375 89.84771729 -44.5 91.75878906 C-45.21414063 92.47923401 -45.92828125 93.19967896 -46.6640625 93.94195557 C-47.43492187 94.70876648 -48.20578125 95.47557739 -49 96.265625 C-49.79148437 97.05902283 -50.58296875 97.85242065 -51.3984375 98.66986084 C-53.07045737 100.34324054 -54.74500097 102.01410181 -56.421875 103.68261719 C-58.99712398 106.24713597 -61.56151052 108.82216989 -64.125 111.3984375 C-65.74935884 113.02147527 -67.37433769 114.64389281 -69 116.265625 C-69.77085937 117.04053284 -70.54171875 117.81544067 -71.3359375 118.61383057 C-72.40714844 119.67558502 -72.40714844 119.67558502 -73.5 120.75878906 C-74.1290625 121.38626038 -74.758125 122.01373169 -75.40625 122.66021729 C-77 124 -77 124 -79 124 C-79.37705078 124.86818359 -79.37705078 124.86818359 -79.76171875 125.75390625 C-81.15592914 128.28283677 -82.73790358 129.9343046 -84.8125 131.9375 C-85.52148438 132.6284375 -86.23046875 133.319375 -86.9609375 134.03125 C-87.97027344 135.00578125 -87.97027344 135.00578125 -89 136 C-89.98155778 136.9767697 -90.9611922 137.95548279 -91.9375 138.9375 C-95 142 -95 142 -97.2421875 142.3125 C-103.7166126 141.5788541 -108.67013666 134.89199816 -112.59472656 130.02050781 C-114.19248369 127.91778534 -115.7334127 125.78691218 -117.25 123.625 C-117.74000488 122.93535156 -118.23000977 122.24570312 -118.73486328 121.53515625 C-119.17813965 120.87644531 -119.62141602 120.21773438 -120.078125 119.5390625 C-120.47418945 118.95334473 -120.87025391 118.36762695 -121.27832031 117.76416016 C-122.27379376 115.33070578 -121.94953526 114.46129736 -121 112 C-118.87007141 109.52949524 -118.87007141 109.52949524 -116.0246582 106.73168945 C-115.50745712 106.21886917 -114.99025604 105.70604889 -114.4573822 105.1776886 C-113.33392256 104.06563707 -112.20701076 102.95706477 -111.07708168 101.8515873 C-109.28294544 100.09582694 -107.49842291 98.33079053 -105.71611023 96.56303406 C-101.2833311 92.17032968 -96.83462367 87.79387079 -92.38604736 83.41717529 C-88.63312099 79.7237528 -84.88660278 76.02404642 -81.14815331 72.31596947 C-79.40063441 70.58772247 -77.64424037 68.86886585 -75.88728333 67.15022278 C-64.90531386 56.32211125 -58.99360332 47.34033171 -57.0625 31.875 C-56.30035959 26.14965253 -55.18997176 21.81110496 -52 17 C-51.55527344 16.32453125 -51.11054688 15.6490625 -50.65234375 14.953125 C-45.40517317 7.509139 -39.35037878 2.58859253 -31 -1 C-30.071875 -1.4125 -29.14375 -1.825 -28.1875 -2.25 C-18.57768335 -4.51113333 -9.40996447 -2.3078453 0 0 Z " fill="#070709" transform="translate(525,279)"/>
<path d="M0 0 C0.75979003 31.17184696 0.75979003 31.17184696 -1.75 44.0625 C-1.90694336 44.88000732 -2.06388672 45.69751465 -2.22558594 46.53979492 C-3.35587569 51.66677624 -5.25048258 55.53766844 -8 60 C-8.76040572 62.26985894 -8.76040572 62.26985894 -9 64 C-9.66 64 -10.32 64 -11 64 C-11.10699219 64.55816406 -11.21398437 65.11632812 -11.32421875 65.69140625 C-16.04916568 81.83269894 -34.72337589 96.95750349 -48.5625 104.875 C-49.55378906 105.40867187 -50.54507813 105.94234375 -51.56640625 106.4921875 C-54.24615336 107.91949226 -54.24615336 107.91949226 -56 111 C-57.9113406 111.77073518 -59.82835363 112.53147378 -61.77587891 113.20556641 C-63.94506295 113.98037704 -66.01219126 114.86477896 -68.10546875 115.82421875 C-69.11577148 116.28344727 -69.11577148 116.28344727 -70.14648438 116.75195312 C-71.52129445 117.38212923 -72.89366049 118.01766158 -74.26367188 118.65820312 C-77.98060086 120.33600841 -80.90028659 121.42191225 -85 121 C-86.28187185 114.19695969 -86.24384756 107.46303418 -86.25 100.5625 C-86.25067474 99.88737366 -86.25134949 99.21224731 -86.25204468 98.5166626 C-86.22866343 83.82842955 -84.461653 71.36766035 -78 58 C-77.58105469 57.11054688 -77.16210938 56.22109375 -76.73046875 55.3046875 C-71.02971224 44.03460403 -62.92186552 33.81043274 -53 26 C-52.18144531 25.29617187 -51.36289062 24.59234375 -50.51953125 23.8671875 C-41.05189366 15.80671683 -28.13613038 5 -15 5 C-15 4.34 -15 3.68 -15 3 C-10.20871341 0.2357962 -5.42857372 -0.05511242 0 0 Z " fill="#FAFAFA" transform="translate(495,147)"/>
<path d="M0 0 C3.52505248 1.30557499 5.22460408 3.38993109 7.515625 6.2890625 C9.7525707 8.86743676 12.32921223 10.99855141 14.9375 13.19140625 C19.30358847 17.02000276 23.26646874 21.29079134 27.30249023 25.46118164 C32.4487254 30.77112823 37.62059274 36.05533389 42.80746365 41.32558537 C45.93439679 44.50462575 49.05132568 47.69231012 52.1472168 50.90161133 C55.15870089 54.02263095 58.19475901 57.11777204 61.24858284 60.19735527 C62.39877793 61.36584152 63.54023161 62.54300797 64.67202568 63.72932625 C71.67204156 71.05290905 76.88397451 75.22771676 87.06507874 77.19993591 C90.31989757 78.08720457 91.41259018 78.87260112 93.375 81.5625 C95 85 95 85 95 88 C96.485 88.495 96.485 88.495 98 89 C99.8671875 91.4765625 99.8671875 91.4765625 101.875 94.625 C104.16551993 98.18991271 106.45792806 101.65856037 109.0625 105 C111 108 111 108 110.82421875 109.94921875 C109.83117371 112.42006542 108.60065412 113.90149847 106.75 115.8125 C105.87601563 116.75029297 105.87601563 116.75029297 104.984375 117.70703125 C103 119 103 119 100.75390625 119.0078125 C96.83996454 117.57547638 93.61760664 115.40285027 90.1875 113.0625 C89.49462891 112.60681641 88.80175781 112.15113281 88.08789062 111.68164062 C86.35109013 110.51293645 84.66992279 109.26241962 83 108 C83 107.34 83 106.68 83 106 C82.34 105.79375 81.68 105.5875 81 105.375 C76.60827216 103.36212474 72.43211667 100.43211667 69 97 C68.60360765 95.5735662 68.25690876 94.13312039 67.9375 92.6875 C67.76089844 91.90761719 67.58429688 91.12773438 67.40234375 90.32421875 C67 88 67 88 67 84 C66.40629734 83.73105927 65.81259468 83.46211853 65.20090103 83.18502808 C62.99269992 81.99606943 61.55256715 80.80400744 59.7855835 79.03955078 C59.17426575 78.43387268 58.562948 77.82819458 57.93310547 77.2041626 C56.94479736 76.2097818 56.94479736 76.2097818 55.93652344 75.1953125 C55.23368225 74.49597595 54.53084106 73.7966394 53.80670166 73.07611084 C51.48587014 70.76407946 49.17242748 68.44481196 46.859375 66.125 C45.25112697 64.5180988 43.64258211 62.91149463 42.03375244 61.30517578 C38.66474503 57.93911706 35.29938255 54.56946647 31.93652344 51.19726562 C27.61644274 46.86577232 23.28742229 42.54334261 18.95565414 38.22354126 C15.63390061 34.90899752 12.31690416 31.58972631 9.0013504 28.26898193 C7.40634417 26.67263772 5.80984043 25.07778835 4.2118454 23.48443604 C1.98499994 21.26264328 -0.23537752 19.0345864 -2.45410156 16.8046875 C-3.12107056 16.14176697 -3.78803955 15.47884644 -4.47521973 14.7958374 C-5.07525818 14.1901593 -5.67529663 13.5844812 -6.29351807 12.96044922 C-6.81927555 12.43393768 -7.34503304 11.90742615 -7.88672256 11.36495972 C-9 10 -9 10 -9 8 C-7.28515625 6.30859375 -7.28515625 6.30859375 -5.0625 4.4375 C-3.96615234 3.50744141 -3.96615234 3.50744141 -2.84765625 2.55859375 C-2.23792969 2.04425781 -1.62820313 1.52992188 -1 1 C-0.67 0.67 -0.34 0.34 0 0 Z " fill="#0C0C0D" transform="translate(435,451)"/>
<path d="M0 0 C0 0.66 0 1.32 0 2 C0.556875 2.04125 1.11375 2.0825 1.6875 2.125 C4.55217159 3.20892979 5.70700853 4.93073218 7.55735779 7.29658508 C9.03601621 9.04252652 10.57473271 10.41691425 12.33227539 11.87963867 C18.67837176 17.35973285 24.51365126 23.3698539 30.43359375 29.30078125 C31.71999272 30.58650559 33.00654001 31.87208153 34.29322815 33.15751648 C36.9733976 35.83621965 39.6517698 38.51670329 42.32885742 41.19848633 C45.76431158 44.63967187 49.20428269 48.07630173 52.64558315 51.5116396 C55.29557229 54.15802365 57.94318564 56.80677421 60.59007454 59.45625877 C61.85844548 60.72529734 63.12756119 61.99359198 64.39742851 63.26113319 C66.16378161 65.02495695 67.92691508 66.7919363 69.68920898 68.55981445 C70.21538818 69.08396942 70.74156738 69.60812439 71.28369141 70.14816284 C74.75154656 73.63648271 76.15758431 75.46661866 76.3125 80.375 C76.25270247 83.46952193 76.10494737 84.81291991 74.5625 87.5625 C70.83987504 89.65080181 67.14415243 90.12514088 63 89 C60.64453125 86.8984375 60.64453125 86.8984375 58 84 C56.90352906 82.88170373 55.80164378 81.76869862 54.6953125 80.66015625 C54.11136719 80.07169922 53.52742188 79.48324219 52.92578125 78.87695312 C52.33152344 78.27818359 51.73726563 77.67941406 51.125 77.0625 C50.53847656 76.46759766 49.95195312 75.87269531 49.34765625 75.25976562 C45.87793612 71.7709811 42.32343384 68.48631844 38.52490234 65.35717773 C36.06316933 63.1662117 34.10679517 60.52815421 32 58 C30.85153776 56.97914468 29.68378078 55.97968065 28.5 55 C26.20073926 53.096311 24.49645941 51.39316903 22.5625 49.0625 C20.59725637 46.7137942 18.92210701 45.00888934 16.6171875 43.078125 C11.22573388 38.41559444 6.22502016 33.37512782 1.19750977 28.32788086 C-0.45507182 26.66987045 -2.11302199 25.01736024 -3.77148438 23.36523438 C-4.82584219 22.31021689 -5.87989038 21.25488986 -6.93359375 20.19921875 C-7.42830673 19.70653 -7.92301971 19.21384125 -8.432724 18.70622253 C-11.76962422 15.34618456 -12.91725046 14.00954444 -13.3125 9.1875 C-13.24620178 6.15435633 -12.91992809 4.83289341 -11.5625 2 C-7.84198173 -0.90381914 -4.55500448 -0.4379812 0 0 Z " fill="#E9E9E9" transform="translate(283,295)"/>
<path d="M0 0 C-0.03480469 0.67546875 -0.06960938 1.3509375 -0.10546875 2.046875 C-0.14607422 3.38492187 -0.14607422 3.38492187 -0.1875 4.75 C-0.22230469 5.63171875 -0.25710938 6.5134375 -0.29296875 7.421875 C0.05488725 10.48300777 1.14714734 11.60733988 3 14 C3 15.32 3 16.64 3 18 C1.02 18.99 1.02 18.99 -1 20 C-0.34 20.33 0.32 20.66 1 21 C0.67 21.66 0.34 22.32 0 23 C-0.598125 22.360625 -1.19625 21.72125 -1.8125 21.0625 C-3.90810337 18.79689611 -3.90810337 18.79689611 -7 18 C-7 17.34 -7 16.68 -7 16 C-12.90296976 16.11565292 -12.90296976 16.11565292 -18.0625 18.5625 C-19.45607623 22.1857982 -19.93790967 25.24749368 -19 29 C-14.44445001 35.73502396 -7.78745862 41.36694129 -2.02978516 47.10058594 C-0.49915964 48.62583741 1.02602661 50.15638201 2.55078125 51.6875 C7.53586597 56.67521761 12.60575325 61.4521909 18 66 C19.66666667 68 21.33333333 70 23 72 C24.14846224 73.02085532 25.31621922 74.02031935 26.5 75 C28.79926074 76.903689 30.50354059 78.60683097 32.4375 80.9375 C35.08616161 84.10297363 37.9299118 86.5900197 41.0625 89.25390625 C43.69628837 91.62750182 45.82109912 94.20828325 48 97 C47.01 97.99 46.02 98.98 45 100 C45.66 100 46.32 100 47 100 C47.33 100.99 47.66 101.98 48 103 C47.01 103.99 46.02 104.98 45 106 C43.73212898 104.72879807 43.73212898 104.72879807 42.43864441 103.43191528 C34.48075681 95.4537743 26.52024396 87.47826118 18.5571394 79.50532722 C14.46311485 75.40607946 10.37002764 71.30590472 6.27905273 67.20361328 C2.33255543 63.24626726 -1.61636479 59.29135414 -5.56699181 55.33813095 C-7.0753745 53.8278976 -8.58287537 52.31678298 -10.08948708 50.80478287 C-12.19642376 48.6906095 -14.30644649 46.57956369 -16.41723633 44.46923828 C-17.04230072 43.84057861 -17.66736511 43.21191895 -18.31137085 42.56420898 C-18.88765732 41.98929718 -19.46394379 41.41438538 -20.05769348 40.822052 C-20.55638349 40.3224402 -21.05507349 39.82282841 -21.56887531 39.30807686 C-24.85770035 36.30202437 -26.8084651 35.78019188 -31.125 35.9375 C-32.74923144 35.99164105 -34.37499432 36.02038538 -36 36 C-37.6877906 34.3122094 -37.21187677 32.24713215 -37.25 29.9375 C-37.22218232 24.61041493 -36.18597853 20.82736925 -34 16 C-33.34 16 -32.68 16 -32 16 C-31.7421875 15.41734375 -31.484375 14.8346875 -31.21875 14.234375 C-29.90165983 11.8197097 -28.44911616 10.18259823 -26.5 8.25 C-25.8915625 7.63640625 -25.283125 7.0228125 -24.65625 6.390625 C-23 5 -23 5 -21 5 C-20.67 4.01 -20.34 3.02 -20 2 C-14.11527876 -0.88886315 -6.23321546 -3.11660773 0 0 Z " fill="#0C0C0C" transform="translate(290,279)"/>
<path d="M0 0 C5.20290062 2.35870223 8.36127691 5.98310001 11 11 C13.21584972 18.20151158 12.63146833 24.8981537 9.140625 31.53515625 C4.56567082 37.04073 0.37878727 39.54188297 -6.65722656 40.29882812 C-13.89351789 40.53410563 -19.05475296 39.24755274 -24.625 34.5625 C-29.12730936 29.14434821 -30.54219068 24.2095524 -30.296875 17.29931641 C-29.52713812 10.61673747 -26.77990456 6.24995849 -21.6015625 1.89453125 C-15.08562034 -2.05244793 -7.17141493 -2.11890256 0 0 Z " fill="#FAFAFA" transform="translate(300,513)"/>
<path d="M0 0 C4.32971103 1.51277798 6.91841018 4.50782486 10.10591125 7.72662354 C10.81865204 8.43074875 11.53139282 9.13487396 12.26573181 9.8603363 C14.61883855 12.19073953 16.9569002 14.53559172 19.29414368 16.88189697 C20.92316238 18.50568262 22.55270144 20.12894638 24.18273926 21.75170898 C27.59628898 25.1548467 31.00223733 28.56537713 34.40327454 31.98101807 C38.7674958 36.36243973 43.15174983 40.72317244 47.54211903 45.07837296 C50.91120147 48.42552311 54.26854392 51.7842552 57.62251854 55.14653778 C59.23468886 56.75952966 60.85072672 58.36866538 62.47063637 59.97388458 C64.73104612 62.21692459 66.97497104 64.47525632 69.21528625 66.73834229 C69.89003494 67.40139877 70.56478363 68.06445526 71.25997925 68.74760437 C75.70202629 73.2822524 75.70202629 73.2822524 76.37597656 76.81958008 C75.83711243 78.99127197 75.83711243 78.99127197 73.83711243 80.99127197 C71.66542053 81.53013611 71.66542053 81.53013611 68.83711243 80.99127197 C66.14791408 79.06220695 63.89931083 76.72539838 61.58418274 74.3694458 C60.87304825 73.66546661 60.16191376 72.96148743 59.42922974 72.23617554 C57.07862501 69.9024984 54.74669526 67.5510978 52.41523743 65.19830322 C50.78890478 63.57279893 49.16175727 61.94810952 47.53382874 60.32420349 C44.12313677 56.91637242 40.72140577 53.49990834 37.32588196 50.07696533 C32.97071849 45.68773345 28.59581572 41.31882802 24.21423721 36.95598316 C20.85081475 33.60312507 17.49720667 30.2405894 14.14658356 26.87494469 C12.53701506 25.26018896 10.92459895 23.64826658 9.30931854 22.03922462 C7.05377185 19.78912229 4.81154201 17.52654584 2.57246399 15.2600708 C1.90131058 14.59544327 1.23015717 13.93081573 0.53866577 13.24604797 C-5.14492088 7.44358775 -5.14492088 7.44358775 -5.16288757 2.99127197 C-3.67997105 0.51974443 -2.89301504 -0.01167435 0 0 Z " fill="#131313" transform="translate(279.1628875732422,299.00872802734375)"/>
<path d="M0 0 C2.86957031 1.30237875 4.93268804 2.68310232 7.15626526 4.9090271 C7.75483337 5.50340073 8.35340149 6.09777435 8.97010803 6.7101593 C9.61491623 7.36058701 10.25972443 8.01101471 10.92407227 8.68115234 C11.612341 9.36752274 12.30060974 10.05389313 13.00973511 10.76106262 C15.28354072 13.03116371 17.55006535 15.3083859 19.81640625 17.5859375 C21.39497519 19.16569865 22.97391408 20.74509021 24.5532074 22.3241272 C27.86239082 25.634875 31.16818653 28.9489564 34.47143555 32.265625 C38.70551661 36.51668876 42.94614338 40.7611473 47.18910313 45.0033474 C50.45016919 48.26468543 53.70862186 51.52862384 56.96619987 54.79344559 C58.52891081 56.35933854 60.09222801 57.92462671 61.65616035 59.48929977 C63.84174213 61.67705041 66.02399862 63.86806336 68.20532227 66.06005859 C68.85215469 66.70643784 69.49898712 67.35281708 70.16542053 68.01878357 C76.49449566 74.39316878 76.49449566 74.39316878 78 77 C77.505 78.485 77.505 78.485 77 80 C71.38123955 79.76519573 68.56364435 76.1342757 64.83886719 72.37231445 C64.13748627 71.6795491 63.43610535 70.98678375 62.71347046 70.27302551 C60.39763381 67.97989346 58.09684869 65.67231568 55.796875 63.36328125 C54.19267189 61.76431174 52.5879486 60.16586395 50.98272705 58.56791687 C47.62045107 55.21605354 44.26577871 51.85679843 40.91601562 48.49243164 C36.6213861 44.18061546 32.30675195 39.88947157 27.98597336 35.60387897 C24.66745131 32.30731137 21.3606953 28.99913794 18.05728912 25.68742943 C16.47106456 24.10038426 14.88098183 22.51718563 13.28701019 20.93792152 C11.06031097 18.72862964 8.85015671 16.50399864 6.64355469 14.2746582 C5.98175201 13.62454773 5.31994934 12.97443726 4.63809204 12.30462646 C1.12581308 8.71826981 -0.95484798 6.28547713 -1 1 C-0.67 0.67 -0.34 0.34 0 0 Z " fill="#1E1E1E" transform="translate(294,282)"/>
<path d="M0 0 C3.92120967 0.5276419 5.98460204 1.4547919 8.87608337 4.13912964 C9.56481474 4.77257168 10.2535461 5.40601372 10.96314812 6.05865097 C11.9713898 7.01961874 11.9713898 7.01961874 13 8 C13.58597017 8.5550333 14.17194035 9.1100666 14.77566719 9.6819191 C16.52683197 11.3641376 18.25712856 13.06544311 19.98266602 14.77392578 C20.95243126 15.72901535 20.95243126 15.72901535 21.94178772 16.70339966 C24.04890536 18.78094899 26.15204446 20.86244648 28.25390625 22.9453125 C28.97596693 23.66080135 29.69802761 24.37629021 30.44196892 25.11346054 C34.25031536 28.88941083 38.0547165 32.66929336 41.85668945 36.45166016 C45.00198233 39.5790323 48.15560475 42.69763447 51.31665039 45.80908203 C55.14513711 49.577595 58.95889383 53.360425 62.76237297 57.15417099 C64.21221186 58.59543223 65.66719313 60.0315393 67.12732124 61.46237564 C69.15974206 63.45613913 71.17267674 65.46774745 73.18188477 67.48486328 C73.79006042 68.07303833 74.39823608 68.66121338 75.02484131 69.26721191 C76.66847229 70.94021606 76.66847229 70.94021606 79 74 C78.8636322 76.90719604 78.8636322 76.90719604 78 79 C66.77929077 74.00993032 57.36515836 61.49572246 48.8046875 52.90234375 C47.36188383 51.45767107 45.9188563 50.01322192 44.47561646 48.56898499 C40.70879056 44.7983719 36.94497952 41.02476374 33.18182373 37.25048828 C29.32878853 33.38715657 25.47286078 29.52671417 21.6171875 25.66601562 C14.07531777 18.1134757 6.53663516 10.55776323 -1 3 C-0.67 2.01 -0.34 1.02 0 0 Z " fill="#1F1F1F" transform="translate(258,318)"/>
<path d="M0 0 C1.98 1.65 3.96 3.3 6 5 C5.01 6.32 4.02 7.64 3 9 C3.66 9 4.32 9 5 9 C5.33 9.99 5.66 10.98 6 12 C5.01 12.99 4.02 13.98 3 15 C0.36 12.36 -2.28 9.72 -5 7 C-4.34 5.68 -3.68 4.36 -3 3 C-2.34 3.33 -1.68 3.66 -1 4 C-0.67 2.68 -0.34 1.36 0 0 Z " fill="#181818" transform="translate(332,370)"/>
<path d="M0 0 C4.91490863 0.43366841 7.70179137 2.38767626 11 6 C10.875 9.8125 10.875 9.8125 10 13 C6.19364503 9.79239749 2.45436433 6.59253891 -1 3 C-0.67 2.01 -0.34 1.02 0 0 Z " fill="#232323" transform="translate(258,318)"/>
<path d="M0 0 C0 0.33 0 0.66 0 1 C-1.54107422 0.91685547 -1.54107422 0.91685547 -3.11328125 0.83203125 C-10.95614283 0.68220993 -16.4419175 1.28592588 -22.4375 6.625 C-28.2996779 13.285768 -28.49646231 19.44468443 -28 28 C-28.33 28 -28.66 28 -29 28 C-30.7128434 13.24186444 -30.7128434 13.24186444 -27.18359375 7.421875 C-19.35292433 -1.71191345 -11.24100168 -1.22426751 0 0 Z " fill="#D5D5D5" transform="translate(300,513)"/>
<path d="M0 0 C3.83690637 1.56318408 6.39154889 3.7953315 9 7 C8.8125 9.8125 8.8125 9.8125 8 12 C4.03209924 10.32127275 1.13068506 7.91722926 -2 5 C-2 4.01 -2 3.02 -2 2 C-1.34 2 -0.68 2 0 2 C0 1.34 0 0.68 0 0 Z " fill="#1A1A1A" transform="translate(328,385)"/>
<path d="M0 0 C1.0209375 0.2165625 1.0209375 0.2165625 2.0625 0.4375 C9.28805576 1.82111706 16.08418551 2.12469459 23.4375 2.0625 C24.45521484 2.05798828 25.47292969 2.05347656 26.52148438 2.04882812 C29.01438509 2.03712437 31.50716074 2.02072848 34 2 C34 2.33 34 2.66 34 3 C29.24282328 4.86702383 24.87655767 5.38410904 19.8125 5.375 C19.06943604 5.37628906 18.32637207 5.37757813 17.56079102 5.37890625 C11.16897298 5.25717051 5.7726285 3.79280515 0 1 C0 0.67 0 0.34 0 0 Z " fill="#6A6A6A" transform="translate(307,610)"/>
<path d="M0 0 C3.3721049 1.44518781 5.69880363 3.12350453 8 6 C8.25 8.75 8.25 8.75 8 11 C5.38893404 10.64715325 3.44809818 10.30406662 1.25 8.8125 C-0.49015681 6.28927263 -0.73744897 4.01933688 -1 1 C-0.67 0.67 -0.34 0.34 0 0 Z " fill="#191919" transform="translate(268,325)"/>
<path d="M0 0 C-1.38685223 3.1195572 -3.00189491 5.25855799 -5.40625 7.671875 C-6.06753906 8.33574219 -6.72882813 8.99960937 -7.41015625 9.68359375 C-8.09980469 10.36550781 -8.78945312 11.04742187 -9.5 11.75 C-10.18964844 12.44738281 -10.87929687 13.14476562 -11.58984375 13.86328125 C-12.25113281 14.52199219 -12.91242188 15.18070312 -13.59375 15.859375 C-14.19896484 16.46233398 -14.80417969 17.06529297 -15.42773438 17.68652344 C-17 19 -17 19 -19 19 C-17.61314777 15.8804428 -15.99810509 13.74144201 -13.59375 11.328125 C-12.60181641 10.33232422 -12.60181641 10.33232422 -11.58984375 9.31640625 C-10.55537109 8.29353516 -10.55537109 8.29353516 -9.5 7.25 C-8.81035156 6.55261719 -8.12070313 5.85523438 -7.41015625 5.13671875 C-6.74886719 4.47800781 -6.08757812 3.81929688 -5.40625 3.140625 C-4.80103516 2.53766602 -4.19582031 1.93470703 -3.57226562 1.31347656 C-2 0 -2 0 0 0 Z " fill="#CCCCCC" transform="translate(253,284)"/>
<path d="M0 0 C-1.3510265 3.01015294 -2.86335687 5.11967466 -5.1875 7.453125 C-5.80367188 8.071875 -6.41984375 8.690625 -7.0546875 9.328125 C-8.01761719 10.27945313 -8.01761719 10.27945313 -9 11.25 C-9.64195312 11.8996875 -10.28390625 12.549375 -10.9453125 13.21875 C-11.86957031 14.13914063 -11.86957031 14.13914063 -12.8125 15.078125 C-13.37582031 15.63918945 -13.93914062 16.20025391 -14.51953125 16.77832031 C-16 18 -16 18 -18 18 C-16.43387807 14.15588253 -13.97905879 11.84049791 -11 9 C-10.154375 8.154375 -9.30875 7.30875 -8.4375 6.4375 C-7.633125 5.633125 -6.82875 4.82875 -6 4 C-4.9171875 2.8553125 -4.9171875 2.8553125 -3.8125 1.6875 C-2 0 -2 0 0 0 Z " fill="#CCCCCC" transform="translate(447,170)"/>
<path d="M0 0 C5.29012124 4.40843437 10.18808428 9.07559794 15 14 C14.34 14.66 13.68 15.32 13 16 C12.67 15.01 12.34 14.02 12 13 C11.175 12.690625 10.35 12.38125 9.5 12.0625 C8.675 11.711875 7.85 11.36125 7 11 C6.1875 8.875 6.1875 8.875 6 7 C5.01 7 4.02 7 3 7 C2.67 7.66 2.34 8.32 2 9 C0.4375 6.75 0.4375 6.75 -1 4 C-0.58984375 1.828125 -0.58984375 1.828125 0 0 Z " fill="#353535" transform="translate(461,476)"/>
<path d="M0 0 C3.16115776 1.36983503 3.9927092 1.9890638 6 5 C3.36 4.67 0.72 4.34 -2 4 C-2 4.66 -2 5.32 -2 6 C-2.66 6 -3.32 6 -4 6 C-4 6.763125 -4 7.52625 -4 8.3125 C-4 10.20833333 -4 12.10416667 -4 14 C-5.7074998 12.71937515 -7.37373596 11.38232443 -9 10 C-9 9.34 -9 8.68 -9 8 C-7.28515625 6.30859375 -7.28515625 6.30859375 -5.0625 4.4375 C-3.96615234 3.50744141 -3.96615234 3.50744141 -2.84765625 2.55859375 C-2.23792969 2.04425781 -1.62820313 1.52992188 -1 1 C-0.67 0.67 -0.34 0.34 0 0 Z " fill="#232323" transform="translate(435,451)"/>
<path d="M0 0 C0 0.66 0 1.32 0 2 C-1.65 2 -3.3 2 -5 2 C-5.33 2.99 -5.66 3.98 -6 5 C-6.99 5.33 -7.98 5.66 -9 6 C-9.66 6.66 -10.32 7.32 -11 8 C-11 7.34 -11 6.68 -11 6 C-12.32 5.67 -13.64 5.34 -15 5 C-15 5.99 -15 6.98 -15 8 C-16.65 8 -18.3 8 -20 8 C-17.10144629 4.75361984 -14.66142483 3.18263392 -10.5625 1.75 C-9.17224609 1.24726563 -9.17224609 1.24726563 -7.75390625 0.734375 C-5.03307622 0.00882032 -2.79987835 -0.14228057 0 0 Z " fill="#2F2F31" transform="translate(505,276)"/>
<path d="M0 0 C1.32 0 2.64 0 4 0 C4 0.66 4 1.32 4 2 C4.78375 1.814375 5.5675 1.62875 6.375 1.4375 C9 1 9 1 11 2 C11 3.65 11 5.3 11 7 C10.01 7 9.02 7 8 7 C7.01 7.33 6.02 7.66 5 8 C2.5 5.6875 2.5 5.6875 0 3 C0 2.01 0 1.02 0 0 Z " fill="#0B0B0B" transform="translate(321,368)"/>
<path d="M0 0 C4.41889613 1.35021826 6.34345343 3.26115668 9 7 C-2 7 -2 7 -4 6 C-2.84826645 3.53199953 -1.95216435 1.95216435 0 0 Z " fill="#1A1A1A" transform="translate(323,363)"/>
<path d="M0 0 C3.33523252 1.38009621 5.18607951 2.84950652 7 6 C6.67 6.99 6.34 7.98 6 9 C3.28324005 8.63287028 1.38936287 8.27255401 -0.875 6.6875 C-2 5 -2 5 -1.75 2.875 C-1 1 -1 1 0 0 Z " fill="#262626" transform="translate(365,353)"/>
<path d="M0 0 C0.33 0 0.66 0 1 0 C1.06058594 0.77085937 1.12117187 1.54171875 1.18359375 2.3359375 C1.26738281 3.33882813 1.35117188 4.34171875 1.4375 5.375 C1.51871094 6.37273437 1.59992188 7.37046875 1.68359375 8.3984375 C1.84965626 10.97927613 1.84965626 10.97927613 3 13 C3.15004973 14.3734635 3.24838006 15.7528526 3.31640625 17.1328125 C3.35830078 17.93847656 3.40019531 18.74414062 3.44335938 19.57421875 C3.48267578 20.41597656 3.52199219 21.25773437 3.5625 22.125 C3.62727539 23.39923828 3.62727539 23.39923828 3.69335938 24.69921875 C3.79954236 26.79928223 3.90028497 28.89961948 4 31 C3.67 31 3.34 31 3 31 C0.4576649 20.46746888 -0.38339966 10.80619052 0 0 Z " fill="#767676" transform="translate(204,410)"/>
<path d="M0 0 C1.98 1.65 3.96 3.3 6 5 C4.68 6.65 3.36 8.3 2 10 C0.02 7.69 -1.96 5.38 -4 3 C-2.68 2.01 -1.36 1.02 0 0 Z " fill="#212121" transform="translate(326,313)"/>
<path d="M0 0 C1.31677734 0.00966797 1.31677734 0.00966797 2.66015625 0.01953125 C4.9375 0.1875 4.9375 0.1875 6.9375 1.1875 C6.92589844 1.88617188 6.91429687 2.58484375 6.90234375 3.3046875 C6.89332031 4.21476562 6.88429688 5.12484375 6.875 6.0625 C6.86339844 6.96742188 6.85179687 7.87234375 6.83984375 8.8046875 C6.77500743 11.2043585 6.77500743 11.2043585 7.9375 13.1875 C6.9475 13.5175 5.9575 13.8475 4.9375 14.1875 C4.9375 10.8875 4.9375 7.5875 4.9375 4.1875 C1.19381258 2.31565629 0.0974209 1.94750233 -3.8125 2.0625 C-5.01132812 2.08957031 -5.01132812 2.08957031 -6.234375 2.1171875 C-7.13929688 2.15199219 -7.13929688 2.15199219 -8.0625 2.1875 C-4.79122414 0.00664943 -3.78873277 -0.06137859 0 0 Z " fill="#454545" transform="translate(283.0625,277.8125)"/>
<path d="M0 0 C1.9375 0.5 1.9375 0.5 4 2 C4.68790422 4.69658452 4.81946464 7.2017019 5 10 C2.15616877 8.7251791 -0.13754018 7.54862922 -2 5 C-1.74853421 2.86254078 -1.54074221 1.54074221 0 0 Z " fill="#1B1B1B" transform="translate(288,345)"/>
<path d="M0 0 C4.13621084 3.3810038 7.81316569 6.66590534 11 11 C10.01 11 9.02 11 8 11 C7.67 11.66 7.34 12.32 7 13 C6.34 12.67 5.68 12.34 5 12 C5.33 10.35 5.66 8.7 6 7 C5.01 7 4.02 7 3 7 C2.67 6.34 2.34 5.68 2 5 C1.01 5.495 1.01 5.495 0 6 C-1 3 -1 3 0 0 Z " fill="#2A2A2B" transform="translate(441,456)"/>
<path d="M0 0 C1.9375 0.3125 1.9375 0.3125 4 1 C4.33 1.99 4.66 2.98 5 4 C5.66 4 6.32 4 7 4 C7 4.66 7 5.32 7 6 C7.99 6.33 8.98 6.66 10 7 C9.34 8.32 8.68 9.64 8 11 C5.03 8.03 2.06 5.06 -1 2 C-0.67 1.34 -0.34 0.68 0 0 Z " fill="#262626" transform="translate(323,352)"/>
<path d="M0 0 C1.98 1.65 3.96 3.3 6 5 C4.68 6.65 3.36 8.3 2 10 C0.35 8.02 -1.3 6.04 -3 4 C-2.01 4 -1.02 4 0 4 C0 2.68 0 1.36 0 0 Z " fill="#242424" transform="translate(276,332)"/>
<path d="M0 0 C0.99 0 1.98 0 3 0 C6 3.33333333 6 3.33333333 6 6 C1.13103697 5.40380045 -3.32790951 4.43023178 -8 3 C-8 2.67 -8 2.34 -8 2 C-6.865625 1.855625 -5.73125 1.71125 -4.5625 1.5625 C-1.19222799 1.38828522 -1.19222799 1.38828522 0 0 Z " fill="#292929" transform="translate(374,364)"/>
<path d="M0 0 C2.33524782 2.25740623 4.18705073 4.2805761 6 7 C5.625 9.1875 5.625 9.1875 5 11 C3.68 10.67 2.36 10.34 1 10 C0.67 6.7 0.34 3.4 0 0 Z " fill="#272727" transform="translate(540,552)"/>
<path d="M0 0 C1.32 0.33 2.64 0.66 4 1 C4.33 2.65 4.66 4.3 5 6 C1 6 1 6 -1.25 4 C-1.8275 3.34 -2.405 2.68 -3 2 C-2.01 2 -1.02 2 0 2 C0 1.34 0 0.68 0 0 Z " fill="#353535" transform="translate(332,390)"/>
<path d="M0 0 C0.33 0.66 0.66 1.32 1 2 C1.99 2 2.98 2 4 2 C3.67 3.32 3.34 4.64 3 6 C2.34 6 1.68 6 1 6 C0.67 7.32 0.34 8.64 0 10 C-0.33 9.34 -0.66 8.68 -1 8 C-1.99 8.66 -2.98 9.32 -4 10 C-2.8905928 6.51329166 -1.73662334 3.22515763 0 0 Z " fill="#C2C2C2" transform="translate(546,330)"/>
<path d="M0 0 C0.99 0.33 1.98 0.66 3 1 C3 1.66 3 2.32 3 3 C5.97 3.495 5.97 3.495 9 4 C9.33 5.32 9.66 6.64 10 8 C6.84669446 7.39305845 4.81111133 6.3583335 2.25 4.4375 C1.63640625 3.98246094 1.0228125 3.52742188 0.390625 3.05859375 C-0.06828125 2.70925781 -0.5271875 2.35992187 -1 2 C-0.67 1.34 -0.34 0.68 0 0 Z " fill="#2C2C2D" transform="translate(368,419)"/>
<path d="M0 0 C0 0.33 0 0.66 0 1 C-1.60875 1.12375 -1.60875 1.12375 -3.25 1.25 C-7.37676065 2.07535213 -8.65081114 2.56657012 -11 6 C-11.80765878 9.64721696 -11.80765878 9.64721696 -12 13 C-12.33 13 -12.66 13 -13 13 C-13.29692135 8.62041012 -13.4694272 5.97967415 -11.5625 2 C-7.84198173 -0.90381914 -4.55500448 -0.4379812 0 0 Z " fill="#C3C3C3" transform="translate(283,295)"/>
<path d="M0 0 C1.12894876 0.93274109 2.25300876 1.87140122 3.375 2.8125 C4.00148438 3.33457031 4.62796875 3.85664063 5.2734375 4.39453125 C7 6 7 6 9 9 C5.82629722 9 4.6205332 8.69066658 2 7 C0.30933342 4.3794668 0 3.17370278 0 0 Z " fill="#2F2F2F" transform="translate(492,507)"/>
<path d="M0 0 C3.27742098 3.10026309 5.93104837 5.97098894 8 10 C8 10.66 8 11.32 8 12 C6.68 11.67 5.36 11.34 4 11 C4.66 11 5.32 11 6 11 C5.54625 10.54625 5.0925 10.0925 4.625 9.625 C1.32544219 6.32544219 0.61182566 4.69066342 0 0 Z " fill="#353537" transform="translate(390,384)"/>
<path d="M0 0 C0 2.33333333 0 4.66666667 0 7 C-2.3125 8.125 -2.3125 8.125 -5 9 C-5.99 8.34 -6.98 7.68 -8 7 C-5.36 4.69 -2.72 2.38 0 0 Z " fill="#1A1A1A" transform="translate(312,482)"/>
<path d="M0 0 C0.66 0.33 1.32 0.66 2 1 C0.74464015 4.76607955 -0.52883585 5.26441793 -4 7 C-4.99 7 -5.98 7 -7 7 C-6.67 6.67 -6.34 6.34 -6 6 C-7.32 5.34 -8.64 4.68 -10 4 C-8.906875 3.71125 -7.81375 3.4225 -6.6875 3.125 C-2.95986155 2.18106796 -2.95986155 2.18106796 0 0 Z " fill="#313132" transform="translate(530,327)"/>
<path d="M0 0 C-5.66748157 2.83374078 -10.69732561 3.63223832 -17 4 C-14.59327602 1.59327602 -12.88621451 1.20867825 -9.625 0.3125 C-8.66851562 0.04050781 -7.71203125 -0.23148437 -6.7265625 -0.51171875 C-4.02935339 -0.9947433 -2.55027856 -0.9004538 0 0 Z " fill="#727272" transform="translate(445,271)"/>
<path d="M0 0 C0.99 0.33 1.98 0.66 3 1 C2.67 2.65 2.34 4.3 2 6 C2.66 6.33 3.32 6.66 4 7 C3.67 7.66 3.34 8.32 3 9 C2.401875 8.38125 1.80375 7.7625 1.1875 7.125 C-1.00811144 4.86323046 -1.00811144 4.86323046 -4 3 C-3.01 3 -2.02 3 -1 3 C-0.67 2.01 -0.34 1.02 0 0 Z " fill="#1D1D1D" transform="translate(287,293)"/>
<path d="M0 0 C2 1.25 2 1.25 4 3 C4 4.32 4 5.64 4 7 C1.13275314 6.42655063 0.1385485 6.1385485 -2 4 C-1.34 2.68 -0.68 1.36 0 0 Z " fill="#1C1C1E" transform="translate(488,503)"/>
<path d="M0 0 C0.433125 0.495 0.86625 0.99 1.3125 1.5 C2.99740483 3.33218192 2.99740483 3.33218192 6 3 C6 4.65 6 6.3 6 8 C4.68 7.34 3.36 6.68 2 6 C2 5.34 2 4.68 2 4 C0.02 3.34 -1.96 2.68 -4 2 C-2.68 1.34 -1.36 0.68 0 0 Z " fill="#262627" transform="translate(350,405)"/>
<path d="M0 0 C1.98 0.495 1.98 0.495 4 1 C3.67 2.32 3.34 3.64 3 5 C1.68 5 0.36 5 -1 5 C-0.67 3.35 -0.34 1.7 0 0 Z " fill="#161616" transform="translate(342,331)"/>
<path d="M0 0 C0.33 0 0.66 0 1 0 C1.33 2.97 1.66 5.94 2 9 C4.64 9.33 7.28 9.66 10 10 C10 10.33 10 10.66 10 11 C8.52168779 11.19412181 7.04230684 11.38012131 5.5625 11.5625 C4.73878906 11.66691406 3.91507812 11.77132813 3.06640625 11.87890625 C2.38449219 11.91886719 1.70257813 11.95882813 1 12 C0 11 0 11 -0.09765625 8.49609375 C-0.08605469 7.48675781 -0.07445312 6.47742188 -0.0625 5.4375 C-0.05347656 4.42558594 -0.04445312 3.41367187 -0.03515625 2.37109375 C-0.02355469 1.58863281 -0.01195312 0.80617188 0 0 Z " fill="#4C4C4C" transform="translate(253,303)"/>
<path d="M0 0 C1.65 0 3.3 0 5 0 C6.0625 1.8125 6.0625 1.8125 7 4 C6.67 4.99 6.34 5.98 6 7 C4.02 4.69 2.04 2.38 0 0 Z " fill="#242424" transform="translate(432,466)"/>
<path d="M0 0 C4.875 4.625 4.875 4.625 6 8 C4.35 8.33 2.7 8.66 1 9 C1 7.02 1 5.04 1 3 C0.34 2.67 -0.32 2.34 -1 2 C-0.67 1.34 -0.34 0.68 0 0 Z " fill="#2B2B2C" transform="translate(408,410)"/>
<path d="M0 0 C1.65 1.65 3.3 3.3 5 5 C4.34 5 3.68 5 3 5 C2.34 6.32 1.68 7.64 1 9 C-1 6 -1 6 -0.625 3.9375 C-0.41875 3.298125 -0.2125 2.65875 0 2 C0 1.34 0 0.68 0 0 Z " fill="#272727" transform="translate(339,326)"/>
<path d="M0 0 C-0.99 1.485 -0.99 1.485 -2 3 C-3.32 2.67 -4.64 2.34 -6 2 C-6 2.99 -6 3.98 -6 5 C-7.65 5 -9.3 5 -11 5 C-8.10998474 1.78887193 -4.47884754 -2.23942377 0 0 Z " fill="#404040" transform="translate(496,279)"/>
<path d="M0 0 C1.32 0.99 2.64 1.98 4 3 C3.67 4.98 3.34 6.96 3 9 C0.9375 6.75 0.9375 6.75 -1 4 C-0.75 1.6875 -0.75 1.6875 0 0 Z " fill="#212123" transform="translate(461,476)"/>
<path d="M0 0 C3.16115776 1.36983503 3.9927092 1.9890638 6 5 C3.69 4.67 1.38 4.34 -1 4 C-1 1 -1 1 0 0 Z " fill="#2F2F2F" transform="translate(435,451)"/>
<path d="M0 0 C1.65 1.65 3.3 3.3 5 5 C4.67 5.66 4.34 6.32 4 7 C1.4375 7.625 1.4375 7.625 -1 8 C-0.67 5.36 -0.34 2.72 0 0 Z " fill="#2A2A2B" transform="translate(380,370)"/>
<path d="M0 0 C2.31 1.65 4.62 3.3 7 5 C6.67 5.99 6.34 6.98 6 8 C3.69 6.02 1.38 4.04 -1 2 C-0.67 1.34 -0.34 0.68 0 0 Z " fill="#131313" transform="translate(331,340)"/>
<path d="M0 0 C3.26954202 0.56371414 4.82575883 1.49962266 7 4 C6.236875 3.95875 5.47375 3.9175 4.6875 3.875 C1.77281584 3.77919176 1.77281584 3.77919176 -1 6 C-0.67 4.02 -0.34 2.04 0 0 Z " fill="#18181A" transform="translate(449,467)"/>
<path d="M0 0 C1.98 0.495 1.98 0.495 4 1 C4.33 2.98 4.66 4.96 5 7 C3.02 5.35 1.04 3.7 -1 2 C-0.67 1.34 -0.34 0.68 0 0 Z " fill="#282828" transform="translate(296,325)"/>
<path d="M0 0 C2.0625 0.4375 2.0625 0.4375 4 1 C3.67 1.99 3.34 2.98 3 4 C3.66 4 4.32 4 5 4 C4.67 4.99 4.34 5.98 4 7 C2.35 5.02 0.7 3.04 -1 1 C-0.67 0.67 -0.34 0.34 0 0 Z " fill="#2F2F2F" transform="translate(343,372)"/>
<path d="M0 0 C2.31 0.66 4.62 1.32 7 2 C6.34 3.32 5.68 4.64 5 6 C3.35 4.02 1.7 2.04 0 0 Z " fill="#2D2D2E" transform="translate(479,513)"/>
<path d="M0 0 C3.465 1.98 3.465 1.98 7 4 C4.39417629 4.93065133 3.35801776 5.14917407 0.75 4.0625 C0.1725 3.711875 -0.405 3.36125 -1 3 C-0.67 2.01 -0.34 1.02 0 0 Z " fill="#1D1D1D" transform="translate(377,433)"/>
<path d="M0 0 C0.33 0 0.66 0 1 0 C1.125 2.375 1.125 2.375 1 5 C-1 7 -1 7 -3.625 7.125 C-4.40875 7.08375 -5.1925 7.0425 -6 7 C-4.68 6.67 -3.36 6.34 -2 6 C-2 4.68 -2 3.36 -2 2 C-1.34 2 -0.68 2 0 2 C0 1.34 0 0.68 0 0 Z " fill="#353535" transform="translate(354,373)"/>
<path d="M0 0 C2.125 0.375 2.125 0.375 4 1 C3.01 1 2.02 1 1 1 C0.34 3.31 -0.32 5.62 -1 8 C-1.66 7.34 -2.32 6.68 -3 6 C-2.63318342 3.06546739 -2.13562754 2.13562754 0 0 Z " fill="#414141" transform="translate(277,299)"/>
<path d="M0 0 C0.66 0.66 1.32 1.32 2 2 C1.625 4.125 1.625 4.125 1 6 C0.01 5.67 -0.98 5.34 -2 5 C-1.125 1.125 -1.125 1.125 0 0 Z " fill="#121212" transform="translate(338,326)"/>
</svg>
