<?xml version="1.0" standalone="no"?>
<!DOCTYPE svg PUBLIC "-//W3C//DTD SVG 20010904//EN"
 "http://www.w3.org/TR/2001/REC-SVG-20010904/DTD/svg10.dtd">
<svg version="1.0" xmlns="http://www.w3.org/2000/svg"
 width="800.000000pt" height="800.000000pt" viewBox="0 0 800.000000 800.000000"
 preserveAspectRatio="xMidYMid meet">

<g transform="translate(0.000000,800.000000) scale(0.100000,-0.100000)"
fill="#000000" stroke="none">
<path d="M3590 7980 c-399 -45 -711 -121 -1055 -257 -529 -209 -995 -520
-1396 -930 -379 -388 -665 -828 -863 -1333 -314 -795 -361 -1683 -134 -2515
243 -893 795 -1677 1563 -2219 274 -194 643 -384 960 -496 231 -81 417 -129
710 -180 137 -24 459 -50 625 -50 166 0 488 26 625 50 257 45 463 96 660 163
897 305 1658 921 2149 1739 509 850 683 1862 487 2843 -131 659 -446 1300
-890 1815 -772 894 -1874 1395 -3050 1389 -150 -1 -292 -8 -391 -19z m1356
-1472 c14 -47 8 -300 -10 -383 -76 -347 -345 -631 -735 -775 -45 -16 -84 -30
-86 -30 -9 0 -25 139 -25 221 0 240 94 475 260 652 120 129 305 247 488 312
84 30 99 31 108 3z m243 -1033 c136 -28 244 -79 371 -173 74 -55 217 -194 248
-241 15 -23 15 -25 -24 -55 -196 -154 -313 -331 -381 -576 -26 -94 -26 -426 0
-520 81 -295 213 -459 525 -654 l42 -26 0 -93 c-1 -418 -356 -955 -766 -1161
-187 -93 -373 -117 -543 -70 -31 9 -121 37 -201 64 -229 76 -271 85 -400 85
-126 0 -200 -15 -346 -66 -378 -133 -341 -123 -449 -122 -81 0 -114 5 -173 25
-200 71 -397 258 -566 537 -354 583 -565 1435 -477 1922 95 529 517 972 1046
1100 57 13 137 23 220 26 187 8 238 -8 505 -152 119 -64 197 -87 300 -87 156
0 272 32 515 144 178 82 187 85 265 103 73 17 181 13 289 -10z"/>
<path d="M4991 5225 c-73 -16 -159 -65 -201 -112 -65 -73 -87 -130 -119 -302
-7 -36 -22 -83 -33 -105 -12 -25 -139 -160 -316 -338 -206 -208 -293 -301
-289 -312 14 -36 122 -179 163 -215 84 -74 58 -90 403 252 l306 304 65 18 c36
9 104 21 152 25 143 11 246 77 317 201 27 48 61 182 49 194 -2 2 -56 -29 -119
-71 l-114 -75 -54 6 c-121 13 -132 19 -184 101 l-48 75 12 57 c6 31 14 70 16
85 5 24 25 41 106 94 56 36 111 70 124 76 32 14 29 22 -14 35 -67 19 -155 22
-222 7z"/>
<path d="M2742 5200 c-56 -25 -167 -136 -192 -192 -19 -41 -26 -111 -15 -141
5 -10 19 -13 56 -9 l51 5 384 -384 c366 -366 384 -386 384 -421 0 -20 -5 -40
-11 -43 -5 -4 -9 -11 -7 -15 4 -12 180 -139 338 -245 74 -49 163 -117 197
-151 53 -52 64 -69 82 -131 17 -56 30 -78 61 -107 31 -28 44 -34 58 -27 25 14
292 286 292 298 0 6 -22 31 -49 56 -33 31 -61 48 -87 52 -52 10 -125 57 -167
108 -18 23 -82 114 -142 202 -99 146 -149 216 -204 285 -16 20 -22 23 -32 13
-7 -7 -29 -13 -48 -13 -33 0 -60 25 -419 384 l-385 384 5 50 c4 45 3 51 -16
56 -40 11 -91 5 -134 -14z m470 -528 l378 -377 0 -44 c0 -60 -28 -91 -83 -91
-45 0 -47 2 -539 490 -268 265 -268 265 -268 308 0 59 33 92 92 92 l42 0 378
-378z"/>
<path d="M2757 4992 c-10 -10 -17 -25 -17 -32 0 -8 168 -182 372 -387 259
-259 379 -373 394 -373 29 0 48 24 40 52 -7 29 -736 758 -757 758 -9 0 -23 -8
-32 -18z"/>
<path d="M2930 5148 c0 -16 103 -125 358 -381 196 -197 368 -364 382 -371 27
-14 50 -11 50 7 0 18 -753 767 -772 767 -12 0 -18 -8 -18 -22z"/>
<path d="M2574 4809 c-6 -11 598 -626 719 -731 47 -41 61 -49 68 -37 5 8 9 18
9 24 0 5 -168 177 -373 382 -365 366 -401 397 -423 362z"/>
<path d="M3365 3420 c-342 -342 -330 -333 -495 -366 -192 -37 -308 -147 -339
-319 -31 -170 75 -353 240 -416 218 -82 465 53 509 279 5 28 15 78 21 110 22
116 31 127 355 452 342 344 326 319 257 400 -31 35 -188 151 -226 165 -6 3
-151 -134 -322 -305z m-316 -604 l53 -53 0 -88 0 -88 -53 -53 -53 -54 -86 0
-86 0 -57 58 -57 58 0 79 0 79 57 58 57 58 86 0 86 0 53 -54z"/>
<path d="M4307 3442 l-47 -47 380 -380 380 -380 13 -60 13 -60 130 -92 c71
-51 144 -100 161 -110 l33 -17 45 44 c25 25 44 49 43 55 -2 6 -50 78 -108 161
l-105 151 -67 19 -68 19 -375 373 c-206 204 -376 372 -378 372 -1 0 -24 -21
-50 -48z"/>
</g>
</svg>
